<?xml version="1.0" encoding="UTF-8"?>
<!DOCTYPE svg PUBLIC "-//W3C//DTD SVG 1.1//EN" "http://www.w3.org/Graphics/SVG/1.1/DTD/svg11.dtd">
<!-- Creator: CorelDRAW -->
<svg xmlns="http://www.w3.org/2000/svg" xml:space="preserve" width="100mm" height="123.245mm" style="shape-rendering:geometricPrecision; text-rendering:geometricPrecision; image-rendering:optimizeQuality; fill-rule:evenodd; clip-rule:evenodd"
viewBox="0 0 100 123.245">
 <defs>
  <style type="text/css">
   <![CDATA[
    .str0 {stroke:#1F2738;stroke-width:0.0762}
    .str1 {stroke:#F3F3F2;stroke-width:0.0762}
    .fil0 {fill:#1F2738}
    .fil1 {fill:#F3F3F2}
    .fil2 {fill:#F8D61A}
   ]]>
  </style>
 </defs>
 <g id="Camada_x0020_1">
  <metadata id="CorelCorpID_0Corel-Layer"/>
  <g id="_155855656">
   <path id="_155906392" class="fil0 str0" d="M0 -0.0001l100 0 0 108.958c0,3.2642 -2.681,5.9355 -5.9574,5.9355 -12.6705,0 -25.3408,0 -38.0111,0 -2.124,0.265 -5.2448,3.9809 -6.0316,8.3515 -0.7868,-4.3706 -3.9074,-8.0865 -6.0314,-8.3515 -12.6703,0 -25.3406,0 -38.0111,0 -3.2763,0 -5.9574,-2.6713 -5.9574,-5.9355l0 -108.958z"/>
   <path id="_155855920" class="fil1 str1" d="M45.9812 102.57l-6.8651 0 2.1652 -22.1933 8.7186 0 8.7188 0 2.1652 22.1933 -6.8649 0 0 -8.9684c0,-1.9413 -1.5868,-3.5312 -3.5263,-3.5312l-0.9852 0c-1.9395,0 -3.5263,1.5899 -3.5263,3.5312l0 8.9684zm4.0187 -29.5076l10.6071 0.0001c0.586,-1.4426 1.1721,-2.8852 1.7582,-4.3279 -1.2818,-0.0014 -2.3614,2.361 -3.6432,2.3597 -0.9967,-0.0009 -2.1966,-2.3667 -3.1935,-2.3678 -1.2817,-0.0015 -1.7527,2.3689 -3.0343,2.3678 -0.9965,-0.0008 -1.4973,-2.3667 -2.4941,-2.3678 -0.9968,0.0011 -1.4976,2.3669 -2.4943,2.3678 -1.2818,0.0013 -1.7526,-2.3693 -3.0343,-2.3678 -0.9969,0.0011 -2.1968,2.3669 -3.1935,2.3678 -1.2818,0.0013 -2.3614,-2.3611 -3.6432,-2.3597 0.5861,1.4427 1.1722,2.8853 1.7582,4.3279l10.6069 -0.0001zm0 5.2856l8.854 0 1.4887 -3.9256 -10.3427 0 -10.3425 0 1.4887 3.9256 8.8538 0z"/>
   <polygon id="_155855848" class="fil2" points="50.0001,38.3656 100,105.616 100,71.8991 50.0001,4.6484 0.0002,71.8991 0.0002,105.616 "/>
   <g>
    <ellipse id="_155855776" class="fil1" cx="83.8466" cy="16.4891" rx="9.42493" ry="9.42485"/>
    <ellipse id="_155855704" class="fil1" cx="16.1536" cy="16.4891" rx="9.42493" ry="9.42485"/>
   </g>
  </g>
 </g>
</svg>
